<svg width="531" height="147" viewBox="0 0 531 147" fill="none" xmlns="http://www.w3.org/2000/svg">
<path d="M0 89.4502V0.950195H4.5V89.4502H0ZM18 89.4502V0.950195H31.5V89.4502H18ZM36 89.4502V0.950195H45V89.4502H36ZM24.75 137.9C20.75 137.9 17.7 136.35 15.6 133.25C13.4 130.15 12.3 125.75 12.3 120.05C12.3 114.55 13.4 110.2 15.6 107C17.8 103.9 20.85 102.35 24.75 102.35C28.65 102.35 31.7 103.9 33.9 107C36.1 110.2 37.2 114.55 37.2 120.05C37.2 125.75 36.1 130.15 33.9 133.25C31.8 136.35 28.75 137.9 24.75 137.9ZM24.75 134.45C27.45 134.45 29.5 133.25 30.9 130.85C32.4 128.35 33.15 124.75 33.15 120.05C33.15 115.65 32.4 112.15 30.9 109.55C29.4 107.05 27.35 105.8 24.75 105.8C22.15 105.8 20.1 107.05 18.6 109.55C17.1 112.15 16.35 115.65 16.35 120.05C16.35 124.75 17.05 128.35 18.45 130.85C19.95 133.25 22.05 134.45 24.75 134.45Z" fill="black"/>
<path d="M49.5117 89.4502V0.950195H54.0117V89.4502H49.5117ZM58.5117 89.4502V0.950195H63.0117V89.4502H58.5117ZM72.0117 89.4502V0.950195H90.0117V89.4502H72.0117ZM63.6117 111.8H67.6617V116.9C68.2617 115 69.2617 113.6 70.6617 112.7C72.0617 111.7 73.6617 111.2 75.4617 111.2C77.3617 111.2 79.1617 111.7 80.8617 112.7C82.4617 113.7 83.7117 115.2 84.6117 117.2C85.6117 119.1 86.1117 121.5 86.1117 124.4C86.1117 127.2 85.6117 129.65 84.6117 131.75C83.6117 133.85 82.3117 135.4 80.7117 136.4C79.0117 137.4 77.2117 137.9 75.3117 137.9C73.8117 137.9 72.4117 137.55 71.1117 136.85C69.7117 136.15 68.6117 135.2 67.8117 134V146.6H63.6117V111.8ZM74.7117 134.45C76.7117 134.45 78.4117 133.65 79.8117 132.05C81.2117 130.55 81.9117 128.05 81.9117 124.55C81.9117 121.35 81.3117 118.9 80.1117 117.2C78.9117 115.5 77.1617 114.65 74.8617 114.65C72.7617 114.65 71.0617 115.55 69.7617 117.35C68.3617 119.15 67.6617 121.85 67.6617 125.45C67.7617 128.35 68.4117 130.55 69.6117 132.05C70.9117 133.65 72.6117 134.45 74.7117 134.45Z" fill="black"/>
<path d="M99.0234 89.4502V0.950195H103.523V89.4502H99.0234ZM108.023 89.4502V0.950195H117.023V89.4502H108.023ZM126.023 89.4502V0.950195H130.523V89.4502H126.023ZM124.973 137.9C121.173 137.9 118.173 136.75 115.973 134.45C113.673 132.15 112.523 128.9 112.523 124.7C112.523 121.9 113.073 119.45 114.173 117.35C115.173 115.35 116.573 113.85 118.373 112.85C120.073 111.75 122.023 111.2 124.223 111.2C127.323 111.2 129.823 112.2 131.723 114.2C133.623 116.3 134.573 119.35 134.573 123.35C134.573 123.75 134.573 124.35 134.573 125.15H116.423C116.523 128.25 117.373 130.6 118.973 132.2C120.573 133.8 122.623 134.6 125.123 134.6C127.823 134.6 130.023 133.65 131.723 131.75L133.973 134C131.773 136.6 128.773 137.9 124.973 137.9ZM130.523 122C130.523 119.6 129.923 117.7 128.723 116.3C127.523 114.9 125.923 114.2 123.923 114.2C122.123 114.2 120.523 114.85 119.123 116.15C117.723 117.45 116.873 119.4 116.573 122H130.523Z" fill="black"/>
<path d="M148.535 89.4502V0.950195H157.535V89.4502H148.535ZM175.535 89.4502V0.950195H180.035V89.4502H175.535ZM184.535 89.4502V0.950195H189.035V89.4502H184.535ZM163.385 111.8H167.285V116.3C168.285 114.8 169.535 113.55 171.035 112.55C172.535 111.65 174.135 111.2 175.835 111.2C178.135 111.2 179.985 112.05 181.385 113.75C182.685 115.55 183.335 118.25 183.335 121.85V137.3H179.435V122C179.435 119.4 179.035 117.55 178.235 116.45C177.335 115.25 176.185 114.65 174.785 114.65C173.585 114.65 172.435 115 171.335 115.7C170.135 116.4 169.135 117.35 168.335 118.55C167.635 119.75 167.285 121.1 167.285 122.6V137.3H163.385V111.8Z" fill="black"/>
<path d="M198.047 89.4502V0.950195H207.047V89.4502H198.047ZM211.547 89.4502V0.950195H225.047V89.4502H211.547ZM229.547 89.4502V0.950195H234.047V89.4502H229.547ZM222.647 137.9C218.147 137.9 214.497 136.4 211.697 133.4L213.797 129.95L213.947 129.5L214.397 129.65C214.397 129.75 214.447 129.95 214.547 130.25C214.547 130.45 214.647 130.7 214.847 131C214.947 131.2 215.147 131.4 215.447 131.6C217.547 133.4 220.147 134.3 223.247 134.3C225.247 134.3 226.947 133.75 228.347 132.65C229.747 131.45 230.447 130.05 230.447 128.45C230.447 127.35 230.197 126.4 229.697 125.6C229.297 124.9 228.547 124.2 227.447 123.5C226.347 122.8 224.647 121.95 222.347 120.95C218.947 119.65 216.497 118.15 214.997 116.45C213.597 114.75 212.897 112.85 212.897 110.75C212.897 108.15 213.847 106.05 215.747 104.45C217.647 102.85 220.197 102.05 223.397 102.05C225.297 102.05 227.097 102.45 228.797 103.25C230.397 104.05 231.847 105.1 233.147 106.4L230.597 109.85L230.297 109.55C230.297 109.45 230.247 109.3 230.147 109.1C230.147 108.8 230.047 108.55 229.847 108.35C229.747 108.05 229.547 107.8 229.247 107.6C228.447 106.8 227.497 106.2 226.397 105.8C225.397 105.5 224.197 105.35 222.797 105.35C220.997 105.35 219.597 105.85 218.597 106.85C217.497 107.85 216.947 109.05 216.947 110.45C216.947 111.55 217.147 112.5 217.547 113.3C218.047 114.1 218.897 114.85 220.097 115.55C221.297 116.35 223.097 117.2 225.497 118.1C228.797 119.5 231.097 120.9 232.397 122.3C233.597 123.8 234.197 125.65 234.197 127.85C234.197 129.55 233.797 131.15 232.997 132.65C232.097 134.15 230.797 135.4 229.097 136.4C227.297 137.4 225.147 137.9 222.647 137.9Z" fill="black"/>
<path d="M247.559 89.4502V0.950195H252.059V89.4502H247.559ZM261.059 89.4502V0.950195H279.059V89.4502H261.059ZM283.559 89.4502V0.950195H288.059V89.4502H283.559ZM283.109 134.9C280.709 136.8 278.009 137.75 275.009 137.75C272.209 137.75 270.209 136.9 269.009 135.2C267.809 133.4 267.209 130.6 267.209 126.8C267.209 126.1 267.259 125 267.359 123.5L267.959 115.1H262.259V111.8H268.109L268.559 105.05L272.909 104.3H273.509V104.6C273.309 104.9 273.159 105.2 273.059 105.5C272.859 105.8 272.759 106.2 272.759 106.7L272.159 111.8H280.559V115.1H271.859L271.409 123.8C271.309 125.3 271.259 126.25 271.259 126.65C271.259 129.65 271.609 131.7 272.309 132.8C273.009 133.8 274.109 134.3 275.609 134.3C276.709 134.3 277.759 134.1 278.759 133.7C279.659 133.3 280.709 132.65 281.909 131.75L283.109 134.9Z" fill="black"/>
<path d="M297.07 89.4502V0.950195H301.57V89.4502H297.07ZM315.07 89.4502V0.950195H333.07V89.4502H315.07ZM337.57 89.4502V0.950195H342.07V89.4502H337.57ZM321.82 137.75C319.52 137.75 317.47 137.2 315.67 136.1C313.97 135 312.62 133.45 311.62 131.45C310.52 129.45 309.97 127.15 309.97 124.55C309.97 121.95 310.52 119.65 311.62 117.65C312.62 115.65 313.97 114.1 315.67 113C317.47 111.8 319.52 111.2 321.82 111.2C324.12 111.2 326.12 111.8 327.82 113C329.62 114.1 331.02 115.65 332.02 117.65C333.02 119.65 333.52 121.95 333.52 124.55C333.52 127.15 333.02 129.45 332.02 131.45C331.02 133.45 329.62 135 327.82 136.1C326.12 137.2 324.12 137.75 321.82 137.75ZM321.82 134.45C323.22 134.45 324.52 134 325.72 133.1C326.82 132.3 327.72 131.15 328.42 129.65C329.02 128.05 329.32 126.3 329.32 124.4C329.32 121.5 328.62 119.15 327.22 117.35C325.82 115.55 324.02 114.65 321.82 114.65C319.62 114.65 317.82 115.55 316.42 117.35C315.02 119.15 314.32 121.5 314.32 124.4C314.32 126.3 314.62 128.05 315.22 129.65C315.92 131.15 316.82 132.3 317.92 133.1C319.02 134 320.32 134.45 321.82 134.45Z" fill="black"/>
<path d="M346.582 89.4502V0.950195H351.082V89.4502H346.582ZM360.082 89.4502V0.950195H364.582V89.4502H360.082ZM373.582 89.4502V0.950195H391.582V89.4502H373.582ZM376.132 111.2C378.832 111.2 381.082 112.15 382.882 114.05L381.082 117.05L380.932 117.65L380.482 117.35C380.382 116.95 380.282 116.65 380.182 116.45C379.982 116.15 379.632 115.85 379.132 115.55C378.232 114.95 377.132 114.65 375.832 114.65C374.532 114.65 373.282 115 372.082 115.7C370.882 116.3 369.932 117.3 369.232 118.7C368.432 120.1 368.032 121.8 368.032 123.8V137.3H363.982V111.8H368.182L368.032 116.45C368.732 114.85 369.832 113.55 371.332 112.55C372.832 111.65 374.432 111.2 376.132 111.2Z" fill="black"/>
<path d="M396.094 89.4502V0.950195H400.594V89.4502H396.094ZM409.594 89.4502V0.950195H414.094V89.4502H409.594ZM418.594 89.4502V0.950195H427.594V89.4502H418.594ZM420.544 111.2C424.144 111.2 426.894 112.15 428.794 114.05C430.694 115.95 431.644 119.2 431.644 123.8V137.3H427.294V133.4C425.794 136.4 422.894 137.9 418.594 137.9C415.794 137.9 413.594 137.25 411.994 135.95C410.394 134.65 409.594 132.95 409.594 130.85C409.594 129.05 410.194 127.5 411.394 126.2C412.494 124.9 414.044 123.85 416.044 123.05C417.944 122.35 420.094 122 422.494 122C424.594 122 426.494 122.1 428.194 122.3C427.994 119.5 427.244 117.5 425.944 116.3C424.644 115.1 422.744 114.5 420.244 114.5C418.944 114.5 417.744 114.75 416.644 115.25C415.444 115.75 414.344 116.45 413.344 117.35L411.394 114.8C413.794 112.4 416.844 111.2 420.544 111.2ZM419.044 134.9C421.844 134.9 424.044 134.05 425.644 132.35C427.244 130.75 428.094 128.45 428.194 125.45C426.494 125.15 424.694 125 422.794 125C419.994 125 417.744 125.5 416.044 126.5C414.444 127.4 413.644 128.8 413.644 130.7C413.644 133.5 415.444 134.9 419.044 134.9Z" fill="black"/>
<path d="M445.605 89.4502V0.950195H450.105V89.4502H445.605ZM459.105 89.4502V0.950195H468.105V89.4502H459.105ZM472.605 89.4502V0.950195H477.105V89.4502H472.605ZM482.955 114.5C482.555 114.4 482.055 114.35 481.455 114.35C479.655 114.35 478.155 114.75 476.955 115.55C477.655 116.85 478.005 118.25 478.005 119.75C478.005 121.45 477.605 122.95 476.805 124.25C476.105 125.65 475.055 126.75 473.655 127.55C472.355 128.25 470.805 128.6 469.005 128.6C467.605 128.6 466.305 128.35 465.105 127.85C464.405 128.65 464.055 129.45 464.055 130.25C464.055 131.15 464.605 131.8 465.705 132.2C466.905 132.6 468.955 132.8 471.855 132.8C475.455 132.8 477.905 133.3 479.205 134.3C480.505 135.4 481.155 137.05 481.155 139.25C481.155 141.45 480.305 143.25 478.605 144.65C476.805 146.15 474.005 146.9 470.205 146.9C466.505 146.9 463.655 146.35 461.655 145.25C459.555 144.15 458.505 142.5 458.505 140.3C458.505 139 458.905 137.85 459.705 136.85C460.405 135.85 461.355 135.1 462.555 134.6C461.255 133.8 460.605 132.65 460.605 131.15C460.605 129.65 461.355 128.1 462.855 126.5C461.955 125.7 461.255 124.7 460.755 123.5C460.355 122.4 460.155 121.15 460.155 119.75C460.155 118.15 460.505 116.65 461.205 115.25C461.905 113.85 462.955 112.8 464.355 112.1C465.655 111.3 467.205 110.9 469.005 110.9C471.705 110.9 473.905 111.75 475.605 113.45C476.405 112.65 477.305 112.05 478.305 111.65C479.205 111.25 480.255 111.05 481.455 111.05L482.355 111.2L482.955 114.5ZM469.005 125.3C470.605 125.3 471.955 124.75 473.055 123.65C474.055 122.65 474.555 121.35 474.555 119.75C474.555 118.15 474.055 116.8 473.055 115.7C471.955 114.7 470.605 114.2 469.005 114.2C467.405 114.2 466.055 114.7 464.955 115.7C463.955 116.8 463.455 118.15 463.455 119.75C463.455 121.35 463.955 122.65 464.955 123.65C466.055 124.75 467.405 125.3 469.005 125.3ZM477.555 139.85C477.555 138.95 477.405 138.25 477.105 137.75C476.805 137.25 476.155 136.85 475.155 136.55C474.255 136.35 472.855 136.25 470.955 136.25C468.355 136.25 466.255 136 464.655 135.5C463.755 136.1 463.105 136.7 462.705 137.3C462.405 138 462.255 138.85 462.255 139.85C462.255 141.15 462.955 142.15 464.355 142.85C465.755 143.55 467.705 143.9 470.205 143.9C472.705 143.9 474.555 143.55 475.755 142.85C476.955 142.05 477.555 141.05 477.555 139.85Z" fill="black"/>
<path d="M495.117 89.4502V0.950195H499.617V89.4502H495.117ZM504.117 89.4502V0.950195H513.117V89.4502H504.117ZM522.117 89.4502V0.950195H526.617V89.4502H522.117ZM521.067 137.9C517.267 137.9 514.267 136.75 512.067 134.45C509.767 132.15 508.617 128.9 508.617 124.7C508.617 121.9 509.167 119.45 510.267 117.35C511.267 115.35 512.667 113.85 514.467 112.85C516.167 111.75 518.117 111.2 520.317 111.2C523.417 111.2 525.917 112.2 527.817 114.2C529.717 116.3 530.667 119.35 530.667 123.35C530.667 123.75 530.667 124.35 530.667 125.15H512.517C512.617 128.25 513.467 130.6 515.067 132.2C516.667 133.8 518.717 134.6 521.217 134.6C523.917 134.6 526.117 133.65 527.817 131.75L530.067 134C527.867 136.6 524.867 137.9 521.067 137.9ZM526.617 122C526.617 119.6 526.017 117.7 524.817 116.3C523.617 114.9 522.017 114.2 520.017 114.2C518.217 114.2 516.617 114.85 515.217 116.15C513.817 117.45 512.967 119.4 512.667 122H526.617Z" fill="black"/>
</svg>
