<svg width="531" height="146" viewBox="0 0 531 146" fill="none" xmlns="http://www.w3.org/2000/svg">
<path d="M0 88.5V0H4.5V88.5H0ZM18 88.5V0H31.5V88.5H18ZM36 88.5V0H45V88.5H36ZM24.75 136.95C20.75 136.95 17.7 135.4 15.6 132.3C13.4 129.2 12.3 124.8 12.3 119.1C12.3 113.6 13.4 109.25 15.6 106.05C17.8 102.95 20.85 101.4 24.75 101.4C28.65 101.4 31.7 102.95 33.9 106.05C36.1 109.25 37.2 113.6 37.2 119.1C37.2 124.8 36.1 129.2 33.9 132.3C31.8 135.4 28.75 136.95 24.75 136.95ZM24.75 133.5C27.45 133.5 29.5 132.3 30.9 129.9C32.4 127.4 33.15 123.8 33.15 119.1C33.15 114.7 32.4 111.2 30.9 108.6C29.4 106.1 27.35 104.85 24.75 104.85C22.15 104.85 20.1 106.1 18.6 108.6C17.1 111.2 16.35 114.7 16.35 119.1C16.35 123.8 17.05 127.4 18.45 129.9C19.95 132.3 22.05 133.5 24.75 133.5Z" fill="white"/>
<path d="M49.5117 88.5V0H54.0117V88.5H49.5117ZM58.5117 88.5V0H63.0117V88.5H58.5117ZM72.0117 88.5V0H90.0117V88.5H72.0117ZM63.6117 110.85H67.6617V115.95C68.2617 114.05 69.2617 112.65 70.6617 111.75C72.0617 110.75 73.6617 110.25 75.4617 110.25C77.3617 110.25 79.1617 110.75 80.8617 111.75C82.4617 112.75 83.7117 114.25 84.6117 116.25C85.6117 118.15 86.1117 120.55 86.1117 123.45C86.1117 126.25 85.6117 128.7 84.6117 130.8C83.6117 132.9 82.3117 134.45 80.7117 135.45C79.0117 136.45 77.2117 136.95 75.3117 136.95C73.8117 136.95 72.4117 136.6 71.1117 135.9C69.7117 135.2 68.6117 134.25 67.8117 133.05V145.65H63.6117V110.85ZM74.7117 133.5C76.7117 133.5 78.4117 132.7 79.8117 131.1C81.2117 129.6 81.9117 127.1 81.9117 123.6C81.9117 120.4 81.3117 117.95 80.1117 116.25C78.9117 114.55 77.1617 113.7 74.8617 113.7C72.7617 113.7 71.0617 114.6 69.7617 116.4C68.3617 118.2 67.6617 120.9 67.6617 124.5C67.7617 127.4 68.4117 129.6 69.6117 131.1C70.9117 132.7 72.6117 133.5 74.7117 133.5Z" fill="white"/>
<path d="M99.0234 88.5V0H103.523V88.5H99.0234ZM108.023 88.5V0H117.023V88.5H108.023ZM126.023 88.5V0H130.523V88.5H126.023ZM124.973 136.95C121.173 136.95 118.173 135.8 115.973 133.5C113.673 131.2 112.523 127.95 112.523 123.75C112.523 120.95 113.073 118.5 114.173 116.4C115.173 114.4 116.573 112.9 118.373 111.9C120.073 110.8 122.023 110.25 124.223 110.25C127.323 110.25 129.823 111.25 131.723 113.25C133.623 115.35 134.573 118.4 134.573 122.4C134.573 122.8 134.573 123.4 134.573 124.2H116.423C116.523 127.3 117.373 129.65 118.973 131.25C120.573 132.85 122.623 133.65 125.123 133.65C127.823 133.65 130.023 132.7 131.723 130.8L133.973 133.05C131.773 135.65 128.773 136.95 124.973 136.95ZM130.523 121.05C130.523 118.65 129.923 116.75 128.723 115.35C127.523 113.95 125.923 113.25 123.923 113.25C122.123 113.25 120.523 113.9 119.123 115.2C117.723 116.5 116.873 118.45 116.573 121.05H130.523Z" fill="white"/>
<path d="M148.535 88.5V0H157.535V88.5H148.535ZM175.535 88.5V0H180.035V88.5H175.535ZM184.535 88.5V0H189.035V88.5H184.535ZM163.385 110.85H167.285V115.35C168.285 113.85 169.535 112.6 171.035 111.6C172.535 110.7 174.135 110.25 175.835 110.25C178.135 110.25 179.985 111.1 181.385 112.8C182.685 114.6 183.335 117.3 183.335 120.9V136.35H179.435V121.05C179.435 118.45 179.035 116.6 178.235 115.5C177.335 114.3 176.185 113.7 174.785 113.7C173.585 113.7 172.435 114.05 171.335 114.75C170.135 115.45 169.135 116.4 168.335 117.6C167.635 118.8 167.285 120.15 167.285 121.65V136.35H163.385V110.85Z" fill="white"/>
<path d="M198.047 88.5V0H207.047V88.5H198.047ZM211.547 88.5V0H225.047V88.5H211.547ZM229.547 88.5V0H234.047V88.5H229.547ZM222.647 136.95C218.147 136.95 214.497 135.45 211.697 132.45L213.797 129L213.947 128.55L214.397 128.7C214.397 128.8 214.447 129 214.547 129.3C214.547 129.5 214.647 129.75 214.847 130.05C214.947 130.25 215.147 130.45 215.447 130.65C217.547 132.45 220.147 133.35 223.247 133.35C225.247 133.35 226.947 132.8 228.347 131.7C229.747 130.5 230.447 129.1 230.447 127.5C230.447 126.4 230.197 125.45 229.697 124.65C229.297 123.95 228.547 123.25 227.447 122.55C226.347 121.85 224.647 121 222.347 120C218.947 118.7 216.497 117.2 214.997 115.5C213.597 113.8 212.897 111.9 212.897 109.8C212.897 107.2 213.847 105.1 215.747 103.5C217.647 101.9 220.197 101.1 223.397 101.1C225.297 101.1 227.097 101.5 228.797 102.3C230.397 103.1 231.847 104.15 233.147 105.45L230.597 108.9L230.297 108.6C230.297 108.5 230.247 108.35 230.147 108.15C230.147 107.85 230.047 107.6 229.847 107.4C229.747 107.1 229.547 106.85 229.247 106.65C228.447 105.85 227.497 105.25 226.397 104.85C225.397 104.55 224.197 104.4 222.797 104.4C220.997 104.4 219.597 104.9 218.597 105.9C217.497 106.9 216.947 108.1 216.947 109.5C216.947 110.6 217.147 111.55 217.547 112.35C218.047 113.15 218.897 113.9 220.097 114.6C221.297 115.4 223.097 116.25 225.497 117.15C228.797 118.55 231.097 119.95 232.397 121.35C233.597 122.85 234.197 124.7 234.197 126.9C234.197 128.6 233.797 130.2 232.997 131.7C232.097 133.2 230.797 134.45 229.097 135.45C227.297 136.45 225.147 136.95 222.647 136.95Z" fill="white"/>
<path d="M247.559 88.5V0H252.059V88.5H247.559ZM261.059 88.5V0H279.059V88.5H261.059ZM283.559 88.5V0H288.059V88.5H283.559ZM283.109 133.95C280.709 135.85 278.009 136.8 275.009 136.8C272.209 136.8 270.209 135.95 269.009 134.25C267.809 132.45 267.209 129.65 267.209 125.85C267.209 125.15 267.259 124.05 267.359 122.55L267.959 114.15H262.259V110.85H268.109L268.559 104.1L272.909 103.35H273.509V103.65C273.309 103.95 273.159 104.25 273.059 104.55C272.859 104.85 272.759 105.25 272.759 105.75L272.159 110.85H280.559V114.15H271.859L271.409 122.85C271.309 124.35 271.259 125.3 271.259 125.7C271.259 128.7 271.609 130.75 272.309 131.85C273.009 132.85 274.109 133.35 275.609 133.35C276.709 133.35 277.759 133.15 278.759 132.75C279.659 132.35 280.709 131.7 281.909 130.8L283.109 133.95Z" fill="white"/>
<path d="M297.07 88.5V0H301.57V88.5H297.07ZM315.07 88.5V0H333.07V88.5H315.07ZM337.57 88.5V0H342.07V88.5H337.57ZM321.82 136.8C319.52 136.8 317.47 136.25 315.67 135.15C313.97 134.05 312.62 132.5 311.62 130.5C310.52 128.5 309.97 126.2 309.97 123.6C309.97 121 310.52 118.7 311.62 116.7C312.62 114.7 313.97 113.15 315.67 112.05C317.47 110.85 319.52 110.25 321.82 110.25C324.12 110.25 326.12 110.85 327.82 112.05C329.62 113.15 331.02 114.7 332.02 116.7C333.02 118.7 333.52 121 333.52 123.6C333.52 126.2 333.02 128.5 332.02 130.5C331.02 132.5 329.62 134.05 327.82 135.15C326.12 136.25 324.12 136.8 321.82 136.8ZM321.82 133.5C323.22 133.5 324.52 133.05 325.72 132.15C326.82 131.35 327.72 130.2 328.42 128.7C329.02 127.1 329.32 125.35 329.32 123.45C329.32 120.55 328.62 118.2 327.22 116.4C325.82 114.6 324.02 113.7 321.82 113.7C319.62 113.7 317.82 114.6 316.42 116.4C315.02 118.2 314.32 120.55 314.32 123.45C314.32 125.35 314.62 127.1 315.22 128.7C315.92 130.2 316.82 131.35 317.92 132.15C319.02 133.05 320.32 133.5 321.82 133.5Z" fill="white"/>
<path d="M346.582 88.5V0H351.082V88.5H346.582ZM360.082 88.5V0H364.582V88.5H360.082ZM373.582 88.5V0H391.582V88.5H373.582ZM376.132 110.25C378.832 110.25 381.082 111.2 382.882 113.1L381.082 116.1L380.932 116.7L380.482 116.4C380.382 116 380.282 115.7 380.182 115.5C379.982 115.2 379.632 114.9 379.132 114.6C378.232 114 377.132 113.7 375.832 113.7C374.532 113.7 373.282 114.05 372.082 114.75C370.882 115.35 369.932 116.35 369.232 117.75C368.432 119.15 368.032 120.85 368.032 122.85V136.35H363.982V110.85H368.182L368.032 115.5C368.732 113.9 369.832 112.6 371.332 111.6C372.832 110.7 374.432 110.25 376.132 110.25Z" fill="white"/>
<path d="M396.094 88.5V0H400.594V88.5H396.094ZM409.594 88.5V0H414.094V88.5H409.594ZM418.594 88.5V0H427.594V88.5H418.594ZM420.544 110.25C424.144 110.25 426.894 111.2 428.794 113.1C430.694 115 431.644 118.25 431.644 122.85V136.35H427.294V132.45C425.794 135.45 422.894 136.95 418.594 136.95C415.794 136.95 413.594 136.3 411.994 135C410.394 133.7 409.594 132 409.594 129.9C409.594 128.1 410.194 126.55 411.394 125.25C412.494 123.95 414.044 122.9 416.044 122.1C417.944 121.4 420.094 121.05 422.494 121.05C424.594 121.05 426.494 121.15 428.194 121.35C427.994 118.55 427.244 116.55 425.944 115.35C424.644 114.15 422.744 113.55 420.244 113.55C418.944 113.55 417.744 113.8 416.644 114.3C415.444 114.8 414.344 115.5 413.344 116.4L411.394 113.85C413.794 111.45 416.844 110.25 420.544 110.25ZM419.044 133.95C421.844 133.95 424.044 133.1 425.644 131.4C427.244 129.8 428.094 127.5 428.194 124.5C426.494 124.2 424.694 124.05 422.794 124.05C419.994 124.05 417.744 124.55 416.044 125.55C414.444 126.45 413.644 127.85 413.644 129.75C413.644 132.55 415.444 133.95 419.044 133.95Z" fill="white"/>
<path d="M445.605 88.5V0H450.105V88.5H445.605ZM459.105 88.5V0H468.105V88.5H459.105ZM472.605 88.5V0H477.105V88.5H472.605ZM482.955 113.55C482.555 113.45 482.055 113.4 481.455 113.4C479.655 113.4 478.155 113.8 476.955 114.6C477.655 115.9 478.005 117.3 478.005 118.8C478.005 120.5 477.605 122 476.805 123.3C476.105 124.7 475.055 125.8 473.655 126.6C472.355 127.3 470.805 127.65 469.005 127.65C467.605 127.65 466.305 127.4 465.105 126.9C464.405 127.7 464.055 128.5 464.055 129.3C464.055 130.2 464.605 130.85 465.705 131.25C466.905 131.65 468.955 131.85 471.855 131.85C475.455 131.85 477.905 132.35 479.205 133.35C480.505 134.45 481.155 136.1 481.155 138.3C481.155 140.5 480.305 142.3 478.605 143.7C476.805 145.2 474.005 145.95 470.205 145.95C466.505 145.95 463.655 145.4 461.655 144.3C459.555 143.2 458.505 141.55 458.505 139.35C458.505 138.05 458.905 136.9 459.705 135.9C460.405 134.9 461.355 134.15 462.555 133.65C461.255 132.85 460.605 131.7 460.605 130.2C460.605 128.7 461.355 127.15 462.855 125.55C461.955 124.75 461.255 123.75 460.755 122.55C460.355 121.45 460.155 120.2 460.155 118.8C460.155 117.2 460.505 115.7 461.205 114.3C461.905 112.9 462.955 111.85 464.355 111.15C465.655 110.35 467.205 109.95 469.005 109.95C471.705 109.95 473.905 110.8 475.605 112.5C476.405 111.7 477.305 111.1 478.305 110.7C479.205 110.3 480.255 110.1 481.455 110.1L482.355 110.25L482.955 113.55ZM469.005 124.35C470.605 124.35 471.955 123.8 473.055 122.7C474.055 121.7 474.555 120.4 474.555 118.8C474.555 117.2 474.055 115.85 473.055 114.75C471.955 113.75 470.605 113.25 469.005 113.25C467.405 113.25 466.055 113.75 464.955 114.75C463.955 115.85 463.455 117.2 463.455 118.8C463.455 120.4 463.955 121.7 464.955 122.7C466.055 123.8 467.405 124.35 469.005 124.35ZM477.555 138.9C477.555 138 477.405 137.3 477.105 136.8C476.805 136.3 476.155 135.9 475.155 135.6C474.255 135.4 472.855 135.3 470.955 135.3C468.355 135.3 466.255 135.05 464.655 134.55C463.755 135.15 463.105 135.75 462.705 136.35C462.405 137.05 462.255 137.9 462.255 138.9C462.255 140.2 462.955 141.2 464.355 141.9C465.755 142.6 467.705 142.95 470.205 142.95C472.705 142.95 474.555 142.6 475.755 141.9C476.955 141.1 477.555 140.1 477.555 138.9Z" fill="white"/>
<path d="M495.117 88.5V0H499.617V88.5H495.117ZM504.117 88.5V0H513.117V88.5H504.117ZM522.117 88.5V0H526.617V88.5H522.117ZM521.067 136.95C517.267 136.95 514.267 135.8 512.067 133.5C509.767 131.2 508.617 127.95 508.617 123.75C508.617 120.95 509.167 118.5 510.267 116.4C511.267 114.4 512.667 112.9 514.467 111.9C516.167 110.8 518.117 110.25 520.317 110.25C523.417 110.25 525.917 111.25 527.817 113.25C529.717 115.35 530.667 118.4 530.667 122.4C530.667 122.8 530.667 123.4 530.667 124.2H512.517C512.617 127.3 513.467 129.65 515.067 131.25C516.667 132.85 518.717 133.65 521.217 133.65C523.917 133.65 526.117 132.7 527.817 130.8L530.067 133.05C527.867 135.65 524.867 136.95 521.067 136.95ZM526.617 121.05C526.617 118.65 526.017 116.75 524.817 115.35C523.617 113.95 522.017 113.25 520.017 113.25C518.217 113.25 516.617 113.9 515.217 115.2C513.817 116.5 512.967 118.45 512.667 121.05H526.617Z" fill="white"/>
</svg>
